<?xml version="1.0" encoding="utf-8"?>
<svg viewBox="0 0 321.654 332.123" width="321.654" height="332.123" xmlns="http://www.w3.org/2000/svg">
  <path d="M 229.282 314.693 C 210.718 322.544 187.748 327.429 166.24 327.429 C 144.732 327.429 121.762 322.544 103.198 314.693 C 84.564 306.811 65.778 294.045 51.732 279.998 C 37.685 265.952 24.919 247.166 17.037 228.532 C 9.186 209.968 4.301 186.998 4.301 165.49 C 4.301 143.982 9.186 121.012 17.037 102.448 C 24.919 83.814 37.685 65.028 51.732 50.982 C 65.778 36.935 84.564 24.169 103.198 16.287 C 121.762 8.436 144.732 3.551 166.24 3.551 C 187.748 3.551 210.718 8.436 229.282 16.287 C 244.188 22.592 259.192 32.023 271.788 42.734 L 213.931 42.823 L 203.625 59.905 C 191.708 55.576 180.159 53.551 166.24 53.551 C 149.934 53.551 136.879 56.33 122.676 62.337 C 108.544 68.315 97.822 75.603 87.087 86.337 C 76.353 97.072 69.065 107.794 63.087 121.926 C 57.08 136.129 54.301 149.184 54.301 165.49 C 54.301 181.796 57.08 194.851 63.087 209.054 C 69.065 223.186 76.353 233.908 87.087 244.643 C 97.822 255.377 108.544 262.665 122.676 268.643 C 136.879 274.65 149.934 277.429 166.24 277.429 C 180.018 277.429 191.474 275.445 203.264 271.206 L 213.907 288.925 L 270.598 289.248 C 258.252 299.545 243.721 308.585 229.282 314.693 Z" style="fill: rgb(30, 110, 184);"/>
  <g style="" transform="matrix(1.363286, 0, 0, 1.363286, -133.427322, -60.639141)">
    <title>Squares</title>
    <g transform="matrix(0.690386, 0, 0, 0.690386, 115.989281, 50.181152)" style="">
      <rect x="212.855" y="47.806" width="61.701" height="56.727" style="fill: rgb(6, 7, 8);" transform="matrix(1, 0, 0.582295, 1, -28.072182, 127.043999)"/>
      <rect x="212.855" y="47.806" width="61.701" height="56.727" style="fill: rgb(151, 153, 156);" transform="matrix(1, 0, -0.596369, 1, 61.305248, 183.76947)"/>
      <rect x="211.192" y="44.803" width="61.22" height="53.164" style="fill: rgb(109, 110, 113);" transform="matrix(0.511591, 0.859229, -0.571296, 0.995182, 122.595901, -47.052582)"/>
    </g>
    <g transform="matrix(0.690386, 0, 0, 0.690386, 115.801727, -37.32518)" style="">
      <rect x="212.855" y="47.806" width="61.701" height="56.727" style="fill: rgb(6, 7, 8);" transform="matrix(1, 0, 0.582295, 1, -28.072182, 127.043999)"/>
      <rect x="212.855" y="47.806" width="61.701" height="56.727" style="fill: rgb(151, 153, 156);" transform="matrix(1, 0, -0.596369, 1, 61.305248, 183.76947)"/>
      <rect x="211.192" y="44.803" width="61.22" height="53.164" style="fill: rgb(109, 110, 113);" transform="matrix(0.511591, 0.859229, -0.571296, 0.995182, 122.595901, -47.052582)"/>
    </g>
    <g transform="matrix(0.690386, 0, 0, 0.690386, 39.583199, 6.16909)" style="">
      <rect x="212.855" y="47.806" width="61.701" height="56.727" style="fill: rgb(6, 7, 8);" transform="matrix(1, 0, 0.582295, 1, -28.072182, 127.043999)"/>
      <rect x="212.855" y="47.806" width="61.701" height="56.727" style="fill: rgb(151, 153, 156);" transform="matrix(1, 0, -0.596369, 1, 61.305248, 183.76947)"/>
      <rect x="211.192" y="44.803" width="61.22" height="53.164" style="fill: rgb(109, 110, 113);" transform="matrix(0.511591, 0.859229, -0.571296, 0.995182, 122.595901, -47.052582)"/>
    </g>
  </g>
</svg>
